<?xml version="1.0" standalone="no"?>
<!DOCTYPE svg PUBLIC "-//W3C//DTD SVG 20010904//EN"
 "http://www.w3.org/TR/2001/REC-SVG-20010904/DTD/svg10.dtd">
<svg version="1.0" xmlns="http://www.w3.org/2000/svg"
 width="681.000000pt" height="366.000000pt" viewBox="0 0 681.000000 366.000000"
 preserveAspectRatio="xMidYMid meet">

<g transform="translate(0.000000,366.000000) scale(0.100000,-0.100000)"
fill="#000000" stroke="none">
<path d="M670 1261 l0 -171 35 0 35 0 -2 168 -3 167 -32 3 -33 3 0 -170z"/>
<path d="M807 1423 c-4 -3 -7 -80 -7 -170 l0 -163 35 0 35 0 1 113 0 112 19
-41 c10 -22 28 -73 41 -112 22 -69 24 -72 54 -72 30 0 32 2 59 88 49 152 55
154 56 25 l0 -113 35 0 35 0 -2 166 -3 167 -50 0 -50 0 -37 -104 c-20 -57 -38
-108 -40 -114 -3 -5 -17 31 -33 80 -44 140 -48 145 -99 145 -23 0 -46 -3 -49
-7z"/>
<path d="M1200 1393 c0 -33 0 -33 50 -33 l50 0 0 -135 0 -135 35 0 35 0 0 135
0 135 50 0 50 0 0 34 0 34 -135 -2 -135 -1 0 -32z"/>
<path d="M1635 1421 c-3 -2 -5 -78 -5 -168 l0 -163 35 0 35 0 1 113 c0 124 1
124 50 -21 31 -91 33 -93 61 -90 28 3 32 9 64 102 19 55 36 102 39 104 3 3 5
-43 5 -101 l0 -107 35 0 35 0 0 165 0 165 -34 0 c-19 0 -41 3 -49 6 -11 4 -24
-22 -54 -112 l-39 -118 -41 114 -41 115 -46 0 c-26 1 -49 -1 -51 -4z"/>
<path d="M2073 1423 c-17 -3 -23 -11 -23 -29 0 -22 4 -25 33 -22 26 2 32 7 32
27 0 26 -8 30 -42 24z"/>
<path d="M3190 1405 c-35 -93 -83 -219 -100 -262 l-20 -53 39 0 c34 0 40 3 46
27 11 45 24 53 82 53 54 0 55 0 70 -40 15 -37 19 -40 54 -40 l39 0 -20 49
c-10 27 -35 93 -55 148 -20 54 -39 107 -44 117 -11 28 -81 29 -91 1z m69 -127
l21 -58 -44 0 -45 0 21 61 c11 33 21 59 23 57 1 -2 12 -29 24 -60z"/>
<path d="M3425 1421 c-3 -2 -5 -78 -5 -168 l0 -163 35 0 35 0 -2 167 -3 166
-28 1 c-15 1 -30 0 -32 -3z"/>
<path d="M3544 1421 c-2 -2 -4 -78 -4 -168 l0 -163 29 0 c17 0 33 5 36 10 4 7
11 7 18 2 40 -31 114 -18 143 26 27 40 25 132 -2 169 -28 38 -81 51 -123 30
l-31 -15 0 57 0 58 -31 -1 c-17 -1 -32 -3 -35 -5z m156 -151 c40 -40 15 -140
-35 -140 -29 0 -55 38 -55 82 0 70 48 100 90 58z"/>
<path d="M3830 1399 c0 -27 3 -29 36 -29 32 0 35 2 32 26 -2 22 -9 27 -35 29
-30 2 -33 0 -33 -26z"/>
<path d="M4224 1416 c-50 -22 -78 -70 -82 -143 -5 -75 8 -112 53 -152 86 -75
224 -35 249 72 6 26 5 27 -29 27 -28 0 -37 -5 -45 -24 -24 -64 -105 -71 -141
-13 -28 44 -22 127 11 162 34 36 84 34 120 -5 31 -33 80 -42 80 -15 0 31 -30
73 -64 89 -41 19 -109 20 -152 2z"/>
<path d="M2256 1319 c-21 -17 -26 -18 -26 -5 0 11 -9 16 -30 16 l-30 0 0 -120
0 -120 29 0 29 0 3 86 c3 71 7 88 23 100 52 38 76 5 76 -102 l0 -85 33 3 32 3
-1 85 c0 108 -7 134 -39 148 -38 17 -69 15 -99 -9z"/>
<path d="M2503 1326 c-39 -18 -63 -62 -63 -115 0 -82 38 -123 114 -125 51 -1
90 17 105 50 10 22 8 24 -15 24 -13 0 -36 -7 -49 -16 -15 -10 -34 -14 -50 -10
-26 7 -50 40 -40 56 3 6 45 10 92 10 73 0 84 2 79 16 -3 9 -6 24 -6 35 0 10
-12 33 -27 49 -33 37 -91 48 -140 26z m89 -53 c29 -26 21 -33 -37 -33 -59 0
-64 4 -38 32 20 22 51 23 75 1z"/>
<path d="M2762 1333 c-30 -6 -54 -45 -50 -80 3 -29 21 -41 98 -64 34 -11 45
-19 45 -34 0 -29 -58 -33 -82 -6 -15 19 -73 30 -73 16 0 -23 35 -66 58 -72 79
-21 154 3 166 52 11 43 -16 72 -82 91 -71 20 -83 31 -58 50 22 16 56 9 69 -12
10 -18 67 -19 67 -1 -2 48 -74 76 -158 60z"/>
<path d="M4531 1322 c-19 -9 -38 -27 -42 -39 -8 -21 -5 -23 26 -23 19 0 35 5
35 10 0 6 11 15 24 21 27 13 66 -2 66 -26 0 -19 -10 -24 -71 -35 -29 -6 -61
-18 -71 -27 -18 -16 -24 -68 -10 -90 20 -32 105 -38 140 -11 8 7 12 7 12 -1 0
-6 15 -11 33 -11 l32 0 -3 92 c-4 125 -6 134 -43 147 -46 16 -89 14 -128 -7z
m109 -138 c0 -34 -20 -54 -56 -54 -44 0 -57 25 -25 52 29 23 81 24 81 2z"/>
<path d="M4870 1333 c-8 -3 -23 -12 -32 -21 -16 -14 -18 -13 -18 1 0 12 -9 17
-30 17 l-30 0 0 -120 0 -120 30 0 30 0 0 70 c0 62 3 74 25 95 13 14 33 25 45
25 16 0 20 6 20 30 0 30 -9 34 -40 23z"/>
<path d="M5035 1325 c-19 -10 -31 -12 -33 -6 -2 6 -17 11 -33 11 l-29 0 0
-120 0 -120 35 0 35 0 0 84 c0 85 12 116 44 116 28 0 36 -26 36 -112 l0 -88
35 0 35 0 0 83 c0 69 3 87 18 100 23 21 36 21 56 1 12 -12 16 -36 16 -100 l0
-84 30 0 30 0 0 98 c0 113 -11 138 -66 148 -28 5 -42 2 -63 -14 -24 -18 -30
-19 -42 -6 -23 22 -71 26 -104 9z"/>
<path d="M5423 1333 c-22 -4 -63 -47 -63 -64 0 -17 60 -9 80 11 24 24 43 25
65 4 23 -24 14 -38 -31 -48 -80 -17 -107 -31 -116 -58 -22 -66 43 -111 121
-84 23 7 41 10 41 5 0 -5 15 -9 33 -9 l32 0 -3 102 c-4 123 -14 139 -89 144
-26 1 -58 0 -70 -3z m97 -146 c0 -27 -31 -57 -60 -57 -16 0 -32 5 -35 10 -10
16 4 48 23 53 36 10 72 7 72 -6z"/>
<path d="M2050 1210 l0 -120 35 0 35 0 0 120 0 120 -35 0 -35 0 0 -120z"/>
<path d="M3830 1210 l0 -120 35 0 35 0 0 120 0 120 -35 0 -35 0 0 -120z"/>
<path d="M5630 1240 c0 -49 5 -100 11 -114 20 -43 96 -55 138 -22 11 8 15 8
18 -1 3 -7 18 -13 34 -13 l29 0 0 120 0 120 -35 0 -35 0 0 -82 c0 -90 -4 -102
-36 -112 -40 -12 -54 16 -54 110 l0 84 -35 0 -35 0 0 -90z"/>
<path d="M5909 1313 c5 -10 21 -33 35 -52 14 -19 26 -39 26 -43 0 -5 -15 -30
-33 -56 -53 -75 -52 -72 -10 -72 34 0 41 4 57 35 11 19 23 35 27 35 4 0 17
-16 29 -35 19 -30 27 -35 60 -35 l39 0 -45 65 -46 65 36 49 c20 27 36 51 36
55 0 3 -15 6 -34 6 -27 0 -38 -6 -54 -32 l-21 -32 -18 32 c-15 27 -24 32 -56
32 -33 0 -36 -2 -28 -17z"/>
<path d="M3950 1220 l0 -30 70 0 70 0 0 30 0 30 -70 0 -70 0 0 -30z"/>
<path d="M752 979 c-7 -12 -11 -23 -8 -27 7 -6 46 27 46 40 0 16 -25 8 -38
-13z"/>
<path d="M675 922 c-3 -3 -5 -61 -5 -129 l0 -123 95 0 c78 0 95 3 95 15 0 12
-16 15 -80 15 l-80 0 0 45 0 45 70 0 c56 0 70 3 70 15 0 12 -14 15 -70 15
l-70 0 0 35 0 35 76 0 c66 0 75 2 72 18 -3 14 -16 17 -85 18 -46 1 -85 -1 -88
-4z"/>
<path d="M1276 923 c-3 -3 -6 -62 -6 -130 0 -103 2 -123 15 -123 13 0 15 20
15 124 0 114 -6 147 -24 129z"/>
<path d="M1657 923 c-4 -3 -7 -62 -7 -130 0 -101 3 -123 15 -123 11 0 15 20
17 101 l3 101 35 -101 c45 -133 59 -133 103 -1 l32 94 3 -97 c2 -78 6 -97 18
-97 12 0 14 20 12 128 -3 118 -4 127 -22 127 -16 0 -26 -20 -54 -103 -18 -56
-37 -100 -41 -98 -4 3 -20 44 -36 93 -16 48 -33 94 -38 101 -10 13 -30 16 -40
5z"/>
<path d="M1946 923 c-12 -12 -6 -33 9 -33 8 0 15 6 15 14 0 17 -14 28 -24 19z"/>
<path d="M2667 924 c-16 -17 -4 -24 38 -24 l45 0 0 -116 c0 -105 2 -115 18
-112 15 3 17 18 20 116 l3 112 40 0 c28 0 39 4 37 13 -5 13 -188 23 -201 11z"/>
<path d="M2912 909 c-21 -32 -5 -36 26 -6 24 25 25 27 7 27 -11 0 -26 -9 -33
-21z"/>
<path d="M3056 923 c-3 -3 -6 -62 -6 -130 0 -103 2 -123 15 -123 13 0 15 20
15 124 0 114 -6 147 -24 129z"/>
<path d="M3186 908 c-23 -33 -9 -36 22 -5 21 21 23 27 10 27 -9 0 -24 -10 -32
-22z"/>
<path d="M910 842 c-17 -14 -24 -32 -28 -73 -4 -49 -1 -57 23 -82 43 -42 114
-30 128 23 7 26 -14 26 -38 0 -52 -57 -115 32 -69 98 19 28 60 29 76 2 12 -18
38 -28 38 -14 0 11 -23 49 -34 56 -20 14 -74 8 -96 -10z"/>
<path d="M1099 847 c-40 -30 -51 -96 -24 -146 16 -32 33 -41 75 -41 70 0 109
122 55 175 -27 27 -79 33 -106 12z m89 -35 c31 -39 2 -122 -43 -122 -53 0 -73
83 -31 125 26 26 51 25 74 -3z"/>
<path d="M1373 845 c-73 -51 -37 -185 50 -185 27 0 77 38 77 60 0 16 -18 12
-40 -10 -35 -35 -90 -21 -90 22 0 15 9 18 65 18 l65 0 0 30 c0 63 -75 101
-127 65z m85 -27 c26 -26 13 -38 -38 -38 -51 0 -64 12 -38 38 15 15 61 15 76
0z"/>
<path d="M2020 765 c0 -78 3 -95 15 -95 12 0 15 14 15 68 0 72 10 92 45 92 35
0 45 -20 45 -92 0 -54 3 -68 15 -68 24 0 21 151 -3 173 -21 19 -54 22 -82 7
-13 -7 -21 -7 -25 0 -17 28 -25 1 -25 -85z"/>
<path d="M2247 849 c-28 -16 -49 -74 -41 -115 13 -69 92 -97 139 -49 26 25 32
45 15 45 -5 0 -19 -9 -30 -20 -35 -35 -90 -21 -90 22 0 15 9 18 65 18 l65 0 0
34 c0 58 -71 95 -123 65z m81 -31 c26 -26 13 -38 -38 -38 -51 0 -64 12 -38 38
15 15 61 15 76 0z"/>
<path d="M2420 840 c-37 -37 -21 -68 47 -90 36 -11 48 -20 48 -35 0 -11 -8
-21 -18 -23 -30 -6 -67 7 -67 23 0 8 -7 15 -15 15 -21 0 -19 -26 5 -50 42 -42
130 -15 130 39 0 35 -12 46 -67 60 -31 9 -43 17 -43 30 0 28 36 32 66 9 34
-27 56 -10 25 21 -28 28 -84 28 -111 1z"/>
<path d="M2875 837 c-20 -16 -28 -35 -32 -69 -5 -42 -3 -50 25 -78 21 -20 40
-30 61 -30 33 0 71 30 71 55 0 21 -12 19 -33 -5 -30 -35 -87 -21 -87 22 0 15
9 18 65 18 59 0 65 2 65 20 0 29 -26 76 -45 84 -32 12 -64 6 -90 -17z m95 -26
c15 -30 14 -31 -40 -31 -34 0 -50 4 -50 13 0 38 71 52 90 18z"/>
<path d="M3153 845 c-46 -33 -49 -131 -5 -165 34 -27 77 -25 107 5 14 13 25
29 25 35 0 17 -24 11 -43 -10 -30 -35 -87 -21 -87 22 0 15 9 18 65 18 l65 0 0
30 c0 63 -75 101 -127 65z m87 -34 c15 -30 14 -31 -40 -31 -34 0 -50 4 -50 13
0 38 71 52 90 18z"/>
<path d="M3335 835 c-20 -19 -25 -34 -25 -73 0 -40 5 -53 29 -76 25 -24 35
-27 65 -22 26 5 40 15 51 36 13 25 13 30 2 30 -8 0 -22 -9 -32 -20 -10 -11
-26 -20 -36 -20 -23 0 -49 37 -49 70 0 59 66 95 90 50 11 -20 40 -28 40 -11 0
4 -9 20 -21 35 -28 35 -80 36 -114 1z"/>
<path d="M3529 847 c-46 -35 -54 -123 -14 -162 34 -35 78 -33 116 4 61 61 27
171 -53 171 -18 0 -40 -6 -49 -13z m93 -41 c13 -19 9 -71 -8 -94 -33 -47 -94
-15 -94 49 0 49 40 85 74 67 11 -6 24 -16 28 -22z"/>
<path d="M3700 765 c0 -78 3 -95 15 -95 12 0 15 14 15 63 0 73 15 101 51 95
23 -3 24 -7 27 -80 2 -60 6 -78 17 -78 12 0 15 15 15 68 0 72 10 92 46 92 28
0 34 -17 34 -96 0 -50 3 -64 15 -64 24 0 21 151 -3 173 -23 21 -51 22 -79 2
-18 -13 -22 -13 -33 0 -14 17 -43 19 -70 5 -13 -7 -21 -7 -25 0 -17 28 -25 1
-25 -85z"/>
<path d="M1940 760 c0 -73 3 -90 15 -90 12 0 15 17 15 90 0 73 -3 90 -15 90
-12 0 -15 -17 -15 -90z"/>
<path d="M2592 768 c3 -7 23 -14 46 -16 33 -2 42 0 42 12 0 12 -11 16 -46 16
-32 0 -44 -4 -42 -12z"/>
</g>
</svg>
